<svg xmlns="http://www.w3.org/2000/svg" xmlns:xlink="http://www.w3.org/1999/xlink" zoomAndPan="magnify" preserveAspectRatio="xMidYMid meet" version="1.0" viewBox="393.48 284.49 619.55 267.53"><defs><g/><clipPath id="c15cb5849e"><path d="M 864.46875 309.1875 L 998.71875 309.1875 L 998.71875 355.6875 L 864.46875 355.6875 Z M 864.46875 309.1875 " clip-rule="nonzero"/></clipPath></defs><g fill="#0b464e" fill-opacity="1"><g transform="translate(387.153328, 382.862347)"><g><path d="M 11.8125 -0.703125 C 13.03125 -2.390625 14.054688 -4.5 14.890625 -7.03125 C 15.734375 -9.5625 16.15625 -12.132812 16.15625 -14.75 L 16.15625 -83.625 C 16.15625 -86.25 15.734375 -88.828125 14.890625 -91.359375 C 14.054688 -93.890625 13.03125 -96 11.8125 -97.6875 L 11.8125 -98.375 L 47.5 -98.375 C 56.6875 -98.375 65.070312 -96.734375 72.65625 -93.453125 C 80.25 -90.179688 86.363281 -84.890625 91 -77.578125 C 95.644531 -70.273438 97.96875 -60.8125 97.96875 -49.1875 C 97.96875 -37.570312 95.644531 -28.109375 91 -20.796875 C 86.363281 -13.492188 80.25 -8.203125 72.65625 -4.921875 C 65.070312 -1.640625 56.6875 0 47.5 0 L 11.8125 0 Z M 44.265625 -3.09375 C 55.890625 -3.09375 65.285156 -6.789062 72.453125 -14.1875 C 79.617188 -21.59375 83.203125 -33.257812 83.203125 -49.1875 C 83.203125 -65.019531 79.617188 -76.660156 72.453125 -84.109375 C 65.285156 -91.566406 55.890625 -95.296875 44.265625 -95.296875 C 39.773438 -95.296875 34.859375 -94.59375 29.515625 -93.1875 L 29.515625 -5.203125 C 34.859375 -3.796875 39.773438 -3.09375 44.265625 -3.09375 Z M 44.265625 -3.09375 "/></g></g></g><g fill="#0b464e" fill-opacity="1"><g transform="translate(488.912117, 382.862347)"><g><path d="M 68.171875 -22.34375 C 66.671875 -15.226562 63.316406 -9.46875 58.109375 -5.0625 C 52.910156 -0.65625 46.613281 1.546875 39.21875 1.546875 C 33.03125 1.546875 27.472656 0.164062 22.546875 -2.59375 C 17.628906 -5.363281 13.742188 -9.367188 10.890625 -14.609375 C 8.035156 -19.859375 6.609375 -26.046875 6.609375 -33.171875 C 6.609375 -40.847656 8.148438 -47.613281 11.234375 -53.46875 C 14.328125 -59.332031 18.453125 -63.851562 23.609375 -67.03125 C 28.765625 -70.21875 34.296875 -71.8125 40.203125 -71.8125 C 45.722656 -71.8125 50.5 -70.59375 54.53125 -68.15625 C 58.5625 -65.726562 61.628906 -62.519531 63.734375 -58.53125 C 65.847656 -54.550781 66.90625 -50.21875 66.90625 -45.53125 L 17.421875 -45.53125 L 17.421875 -44.125 C 17.421875 -36.445312 18.59375 -29.9375 20.9375 -24.59375 C 23.28125 -19.25 26.488281 -15.21875 30.5625 -12.5 C 34.644531 -9.789062 39.257812 -8.4375 44.40625 -8.4375 C 49.65625 -8.4375 54.25 -9.675781 58.1875 -12.15625 C 62.125 -14.632812 64.984375 -18.03125 66.765625 -22.34375 Z M 35.703125 -67.609375 C 31.109375 -67.609375 27.125 -66.015625 23.75 -62.828125 C 20.375 -59.640625 18.359375 -54.859375 17.703125 -48.484375 L 53.546875 -48.484375 C 52.796875 -54.578125 50.921875 -59.285156 47.921875 -62.609375 C 44.921875 -65.941406 40.847656 -67.609375 35.703125 -67.609375 Z M 35.703125 -67.609375 "/></g></g></g><g fill="#0b464e" fill-opacity="1"><g transform="translate(559.468595, 382.862347)"><g><path d="M 32.1875 1.546875 C 23.1875 1.546875 15.457031 -0.28125 9 -3.9375 L 9 -23.46875 L 10.40625 -23.46875 C 11.53125 -19.0625 13.351562 -15.242188 15.875 -12.015625 C 18.40625 -8.785156 21.3125 -6.300781 24.59375 -4.5625 C 27.875 -2.832031 31.203125 -1.96875 34.578125 -1.96875 C 38.796875 -1.96875 42.238281 -3.234375 44.90625 -5.765625 C 47.570312 -8.296875 48.90625 -11.429688 48.90625 -15.171875 C 48.90625 -19.296875 47.429688 -22.410156 44.484375 -24.515625 C 41.535156 -26.628906 37.15625 -28.484375 31.34375 -30.078125 C 26.5625 -31.390625 22.597656 -32.796875 19.453125 -34.296875 C 16.316406 -35.796875 13.71875 -37.925781 11.65625 -40.6875 C 9.601562 -43.445312 8.578125 -46.984375 8.578125 -51.296875 C 8.578125 -57.484375 10.894531 -62.445312 15.53125 -66.1875 C 20.164062 -69.9375 26.09375 -71.8125 33.3125 -71.8125 C 39.863281 -71.8125 46.703125 -69.988281 53.828125 -66.34375 L 53.828125 -48.625 L 52.421875 -48.625 C 50.921875 -54.0625 48.109375 -58.703125 43.984375 -62.546875 C 39.867188 -66.390625 35.28125 -68.3125 30.21875 -68.3125 C 26 -68.3125 22.71875 -67.234375 20.375 -65.078125 C 18.03125 -62.921875 16.859375 -60.203125 16.859375 -56.921875 C 16.859375 -53.078125 18.285156 -50.171875 21.140625 -48.203125 C 24.003906 -46.234375 28.34375 -44.40625 34.15625 -42.71875 C 38.9375 -41.320312 42.941406 -39.828125 46.171875 -38.234375 C 49.398438 -36.640625 52.066406 -34.390625 54.171875 -31.484375 C 56.285156 -28.578125 57.34375 -24.78125 57.34375 -20.09375 C 57.34375 -15.226562 56.144531 -11.175781 53.75 -7.9375 C 51.363281 -4.707031 48.25 -2.316406 44.40625 -0.765625 C 40.570312 0.773438 36.5 1.546875 32.1875 1.546875 Z M 32.1875 1.546875 "/></g></g></g><g fill="#0b464e" fill-opacity="1"><g transform="translate(621.31092, 382.862347)"><g><path d="M 10.546875 -0.703125 C 12.972656 -4.078125 14.1875 -8.4375 14.1875 -13.78125 L 14.1875 -51.859375 C 14.1875 -54.953125 13.8125 -57.53125 13.0625 -59.59375 C 12.320312 -61.65625 11.203125 -63.390625 9.703125 -64.796875 L 9.703125 -65.5 L 26 -71.8125 L 26.703125 -71.8125 L 26.703125 -13.78125 C 26.703125 -8.4375 27.921875 -4.078125 30.359375 -0.703125 L 30.359375 0 L 10.546875 0 Z M 20.375 -81.09375 C 18.132812 -81.09375 16.21875 -81.910156 14.625 -83.546875 C 13.03125 -85.191406 12.234375 -87.140625 12.234375 -89.390625 C 12.234375 -91.640625 13.050781 -93.5625 14.6875 -95.15625 C 16.332031 -96.75 18.226562 -97.546875 20.375 -97.546875 C 22.71875 -97.546875 24.6875 -96.75 26.28125 -95.15625 C 27.875 -93.5625 28.671875 -91.640625 28.671875 -89.390625 C 28.671875 -87.046875 27.875 -85.078125 26.28125 -83.484375 C 24.6875 -81.890625 22.71875 -81.09375 20.375 -81.09375 Z M 20.375 -81.09375 "/></g></g></g><g fill="#0b464e" fill-opacity="1"><g transform="translate(658.697376, 382.862347)"><g><path d="M 71.953125 -66.765625 C 67.742188 -66.765625 64.535156 -66.578125 62.328125 -66.203125 C 60.128906 -65.828125 58.140625 -65.078125 56.359375 -63.953125 C 58.421875 -61.890625 60.015625 -59.5 61.140625 -56.78125 C 62.265625 -54.0625 62.828125 -51.203125 62.828125 -48.203125 C 62.828125 -43.710938 61.628906 -39.660156 59.234375 -36.046875 C 56.847656 -32.441406 53.59375 -29.628906 49.46875 -27.609375 C 45.34375 -25.597656 40.800781 -24.59375 35.84375 -24.59375 C 29.28125 -24.59375 23.65625 -26.234375 18.96875 -29.515625 C 17.84375 -28.296875 17.019531 -27.144531 16.5 -26.0625 C 15.988281 -24.988281 15.734375 -23.84375 15.734375 -22.625 C 15.734375 -20.1875 16.597656 -18.359375 18.328125 -17.140625 C 20.066406 -15.921875 22.25 -15.144531 24.875 -14.8125 C 27.5 -14.488281 31.203125 -14.28125 35.984375 -14.1875 C 46.660156 -13.914062 54.71875 -12.5625 60.15625 -10.125 C 65.59375 -7.6875 68.3125 -3.1875 68.3125 3.375 C 68.3125 8.15625 66.644531 12.535156 63.3125 16.515625 C 59.988281 20.492188 55.492188 23.65625 49.828125 26 C 44.160156 28.34375 38 29.515625 31.34375 29.515625 C 23.375 29.515625 17.046875 27.753906 12.359375 24.234375 C 7.679688 20.722656 5.34375 16.066406 5.34375 10.265625 C 5.34375 4.078125 8.15625 -1.5 13.78125 -6.46875 C 9.9375 -8.90625 8.015625 -12.414062 8.015625 -17 C 8.015625 -19.53125 8.691406 -21.941406 10.046875 -24.234375 C 11.410156 -26.535156 13.632812 -28.8125 16.71875 -31.0625 C 14.195312 -33.21875 12.207031 -35.742188 10.75 -38.640625 C 9.300781 -41.546875 8.578125 -44.734375 8.578125 -48.203125 C 8.578125 -52.796875 9.769531 -56.875 12.15625 -60.4375 C 14.539062 -64 17.796875 -66.785156 21.921875 -68.796875 C 26.046875 -70.804688 30.640625 -71.8125 35.703125 -71.8125 C 43.378906 -71.8125 49.75 -69.660156 54.8125 -65.359375 C 56.6875 -68.816406 59.097656 -71.4375 62.046875 -73.21875 C 65.003906 -75 68.304688 -75.890625 71.953125 -75.890625 Z M 35.703125 -27.546875 C 40.191406 -27.546875 43.796875 -29.421875 46.515625 -33.171875 C 49.234375 -36.921875 50.59375 -41.929688 50.59375 -48.203125 C 50.59375 -54.484375 49.234375 -59.5 46.515625 -63.25 C 43.796875 -67 40.191406 -68.875 35.703125 -68.875 C 31.203125 -68.875 27.59375 -67 24.875 -63.25 C 22.15625 -59.5 20.796875 -54.484375 20.796875 -48.203125 C 20.796875 -41.929688 22.15625 -36.921875 24.875 -33.171875 C 27.59375 -29.421875 31.203125 -27.546875 35.703125 -27.546875 Z M 36.828125 -2.53125 C 31.203125 -2.71875 26.863281 -2.972656 23.8125 -3.296875 C 20.769531 -3.628906 18.171875 -4.3125 16.015625 -5.34375 C 14.617188 -3.28125 13.921875 -0.5625 13.921875 2.8125 C 13.921875 6.9375 15.085938 10.613281 17.421875 13.84375 C 19.765625 17.070312 22.925781 19.597656 26.90625 21.421875 C 30.894531 23.253906 35.28125 24.171875 40.0625 24.171875 C 45.675781 24.171875 50.546875 22.90625 54.671875 20.375 C 58.796875 17.84375 60.859375 14.144531 60.859375 9.28125 C 60.859375 6.28125 60.035156 3.957031 58.390625 2.3125 C 56.753906 0.675781 54.222656 -0.488281 50.796875 -1.1875 C 47.378906 -1.894531 42.722656 -2.34375 36.828125 -2.53125 Z M 36.828125 -2.53125 "/></g></g></g><g fill="#0b464e" fill-opacity="1"><g transform="translate(730.097179, 382.862347)"><g><path d="M 10.546875 -0.703125 C 12.972656 -4.078125 14.1875 -8.4375 14.1875 -13.78125 L 14.1875 -51.859375 C 14.1875 -54.953125 13.8125 -57.53125 13.0625 -59.59375 C 12.320312 -61.65625 11.203125 -63.390625 9.703125 -64.796875 L 9.703125 -65.5 L 26 -71.8125 L 26.703125 -71.8125 L 26.703125 -57.625 L 27.40625 -57.625 C 29.28125 -61.84375 32.1875 -65.257812 36.125 -67.875 C 40.0625 -70.5 44.648438 -71.8125 49.890625 -71.8125 C 57.015625 -71.8125 62.679688 -69.492188 66.890625 -64.859375 C 71.109375 -60.222656 73.21875 -54.25 73.21875 -46.9375 L 73.21875 -13.78125 C 73.21875 -8.4375 74.4375 -4.078125 76.875 -0.703125 L 76.875 0 L 57.0625 0 L 57.0625 -0.703125 C 59.5 -4.078125 60.71875 -8.4375 60.71875 -13.78125 L 60.71875 -46.796875 C 60.71875 -51.671875 59.21875 -55.703125 56.21875 -58.890625 C 53.21875 -62.078125 49.28125 -63.671875 44.40625 -63.671875 C 39.539062 -63.671875 35.375 -62.097656 31.90625 -58.953125 C 28.4375 -55.816406 26.703125 -51.765625 26.703125 -46.796875 L 26.703125 -13.78125 C 26.703125 -8.4375 27.921875 -4.078125 30.359375 -0.703125 L 30.359375 0 L 10.546875 0 Z M 10.546875 -0.703125 "/></g></g></g><g fill="#0b464e" fill-opacity="1"><g transform="translate(387.153328, 523.067314)"><g><path d="M 30.921875 1.546875 C 25.859375 1.546875 21.546875 -0.09375 17.984375 -3.375 C 14.429688 -6.65625 12.65625 -11.242188 12.65625 -17.140625 L 12.65625 -57.90625 C 12.65625 -62.40625 10.546875 -65.5 6.328125 -67.1875 L 6.328125 -67.890625 C 12.691406 -71.160156 18.734375 -76.40625 24.453125 -83.625 L 25.15625 -83.625 L 25.15625 -70.265625 L 45.53125 -70.265625 L 43.984375 -65.78125 L 25.15625 -65.78125 L 25.15625 -17.140625 C 25.15625 -13.304688 26.234375 -10.3125 28.390625 -8.15625 C 30.546875 -6 33.265625 -4.921875 36.546875 -4.921875 C 38.703125 -4.921875 40.550781 -5.269531 42.09375 -5.96875 C 43.632812 -6.675781 44.78125 -7.5 45.53125 -8.4375 L 46.9375 -7.734375 C 45.4375 -4.921875 43.304688 -2.671875 40.546875 -0.984375 C 37.785156 0.703125 34.578125 1.546875 30.921875 1.546875 Z M 30.921875 1.546875 "/></g></g></g><g fill="#0b464e" fill-opacity="1"><g transform="translate(432.832285, 523.067314)"><g><path d="M 9.84375 -0.703125 C 12.28125 -4.078125 13.5 -8.4375 13.5 -13.78125 L 13.5 -84.75 C 13.5 -87.84375 13.125 -90.421875 12.375 -92.484375 C 11.625 -94.546875 10.5 -96.328125 9 -97.828125 L 9 -98.515625 L 25.296875 -104.703125 L 26 -104.703125 L 26 -57.625 L 26.703125 -57.625 C 28.578125 -61.84375 31.484375 -65.257812 35.421875 -67.875 C 39.359375 -70.5 43.945312 -71.8125 49.1875 -71.8125 C 56.3125 -71.8125 61.976562 -69.492188 66.1875 -64.859375 C 70.40625 -60.222656 72.515625 -54.25 72.515625 -46.9375 L 72.515625 -13.78125 C 72.515625 -8.4375 73.734375 -4.078125 76.171875 -0.703125 L 76.171875 0 L 56.359375 0 L 56.359375 -0.703125 C 58.796875 -4.078125 60.015625 -8.4375 60.015625 -13.78125 L 60.015625 -46.796875 C 60.015625 -51.671875 58.515625 -55.703125 55.515625 -58.890625 C 52.515625 -62.078125 48.578125 -63.671875 43.703125 -63.671875 C 38.835938 -63.671875 34.671875 -62.097656 31.203125 -58.953125 C 27.734375 -55.816406 26 -51.765625 26 -46.796875 L 26 -13.78125 C 26 -8.4375 27.21875 -4.078125 29.65625 -0.703125 L 29.65625 0 L 9.84375 0 Z M 9.84375 -0.703125 "/></g></g></g><g fill="#0b464e" fill-opacity="1"><g transform="translate(515.335597, 523.067314)"><g><path d="M 68.171875 -22.34375 C 66.671875 -15.226562 63.316406 -9.46875 58.109375 -5.0625 C 52.910156 -0.65625 46.613281 1.546875 39.21875 1.546875 C 33.03125 1.546875 27.472656 0.164062 22.546875 -2.59375 C 17.628906 -5.363281 13.742188 -9.367188 10.890625 -14.609375 C 8.035156 -19.859375 6.609375 -26.046875 6.609375 -33.171875 C 6.609375 -40.847656 8.148438 -47.613281 11.234375 -53.46875 C 14.328125 -59.332031 18.453125 -63.851562 23.609375 -67.03125 C 28.765625 -70.21875 34.296875 -71.8125 40.203125 -71.8125 C 45.722656 -71.8125 50.5 -70.59375 54.53125 -68.15625 C 58.5625 -65.726562 61.628906 -62.519531 63.734375 -58.53125 C 65.847656 -54.550781 66.90625 -50.21875 66.90625 -45.53125 L 17.421875 -45.53125 L 17.421875 -44.125 C 17.421875 -36.445312 18.59375 -29.9375 20.9375 -24.59375 C 23.28125 -19.25 26.488281 -15.21875 30.5625 -12.5 C 34.644531 -9.789062 39.257812 -8.4375 44.40625 -8.4375 C 49.65625 -8.4375 54.25 -9.675781 58.1875 -12.15625 C 62.125 -14.632812 64.984375 -18.03125 66.765625 -22.34375 Z M 35.703125 -67.609375 C 31.109375 -67.609375 27.125 -66.015625 23.75 -62.828125 C 20.375 -59.640625 18.359375 -54.859375 17.703125 -48.484375 L 53.546875 -48.484375 C 52.796875 -54.578125 50.921875 -59.285156 47.921875 -62.609375 C 44.921875 -65.941406 40.847656 -67.609375 35.703125 -67.609375 Z M 35.703125 -67.609375 "/></g></g></g><g fill="#0b464e" fill-opacity="1"><g transform="translate(585.892075, 523.067314)"><g/></g></g><g fill="#0b464e" fill-opacity="1"><g transform="translate(618.231279, 523.067314)"><g><path d="M -1.96875 28.953125 C -8.53125 28.953125 -14.054688 27.546875 -18.546875 24.734375 L -15.875 9.421875 L -15.171875 9.421875 C -13.960938 13.441406 -12.609375 16.785156 -11.109375 19.453125 C -9.609375 22.128906 -7.6875 23.46875 -5.34375 23.46875 C -0.75 23.46875 2.34375 19.019531 3.9375 10.125 L 15.3125 -53.96875 C 15.6875 -55.9375 15.875 -57.859375 15.875 -59.734375 C 15.875 -61.609375 15.566406 -63.128906 14.953125 -64.296875 C 14.347656 -65.472656 13.300781 -66.53125 11.8125 -67.46875 L 11.953125 -68.171875 C 15.410156 -69.566406 18.125 -71.34375 20.09375 -73.5 C 22.0625 -75.65625 23.75 -78.609375 25.15625 -82.359375 C 30.875 -97.441406 41.929688 -104.984375 58.328125 -104.984375 L 65.5 -104.984375 L 62.265625 -88.125 L 61.5625 -88.125 C 58 -89.90625 53.3125 -90.796875 47.5 -90.796875 C 41.976562 -90.796875 37.390625 -89.550781 33.734375 -87.0625 C 30.078125 -84.582031 28.25 -81.328125 28.25 -77.296875 C 28.25 -73.734375 30.359375 -71.390625 34.578125 -70.265625 L 53.546875 -70.265625 L 51.4375 -65.21875 L 36.125 -65.21875 L 23.46875 5.203125 C 22.15625 12.597656 19.367188 18.40625 15.109375 22.625 C 10.847656 26.84375 5.15625 28.953125 -1.96875 28.953125 Z M -1.96875 28.953125 "/></g></g></g><g fill="#0b464e" fill-opacity="1"><g transform="translate(661.099217, 523.067314)"><g><path d="M 21.5 1.828125 C 16.8125 1.828125 13.203125 0.492188 10.671875 -2.171875 C 8.148438 -4.847656 6.890625 -8.898438 6.890625 -14.328125 C 6.890625 -17.328125 7.21875 -20.46875 7.875 -23.75 L 12.234375 -45.953125 C 12.796875 -49.046875 13.078125 -51.578125 13.078125 -53.546875 C 13.078125 -55.796875 12.769531 -57.671875 12.15625 -59.171875 C 11.550781 -60.671875 10.59375 -61.984375 9.28125 -63.109375 L 9.421875 -63.8125 L 35.421875 -72.09375 L 36.125 -72.09375 L 25.859375 -19.8125 C 25.578125 -18.3125 25.4375 -17 25.4375 -15.875 C 25.4375 -11.851562 27.125 -9.84375 30.5 -9.84375 C 32.84375 -9.84375 35.460938 -11.503906 38.359375 -14.828125 C 41.265625 -18.148438 44.097656 -22.671875 46.859375 -28.390625 C 49.628906 -34.109375 52 -40.335938 53.96875 -47.078125 L 58.46875 -70.265625 L 77.15625 -70.265625 L 66.0625 -13.359375 C 65.6875 -11.109375 65.5 -9.75 65.5 -9.28125 C 65.5 -7.21875 66.296875 -6.1875 67.890625 -6.1875 C 70.785156 -6.1875 73.96875 -11.148438 77.4375 -21.078125 L 79.828125 -21.078125 C 77.671875 -12.554688 75.070312 -6.609375 72.03125 -3.234375 C 68.988281 0.140625 65.3125 1.828125 61 1.828125 C 57.15625 1.828125 54.0625 0.632812 51.71875 -1.75 C 49.375 -4.144531 48.203125 -7.78125 48.203125 -12.65625 C 48.203125 -15.175781 48.4375 -17.5625 48.90625 -19.8125 L 50.453125 -27.6875 L 49.75 -27.6875 C 42.351562 -8.007812 32.9375 1.828125 21.5 1.828125 Z M 21.5 1.828125 "/></g></g></g><g fill="#0b464e" fill-opacity="1"><g transform="translate(741.775357, 523.067314)"><g><path d="M 20.515625 1.828125 C 16.578125 1.828125 13.34375 0.5625 10.8125 -1.96875 C 8.289062 -4.5 7.03125 -8.25 7.03125 -13.21875 C 7.03125 -14.894531 7.265625 -17 7.734375 -19.53125 L 14.609375 -55.9375 C 14.796875 -57.25 14.890625 -58.09375 14.890625 -58.46875 C 14.890625 -62.40625 13.160156 -65.125 9.703125 -66.625 L 9.84375 -67.328125 C 19.488281 -70.785156 28.90625 -76.78125 38.09375 -85.3125 L 38.796875 -85.3125 L 35.84375 -70.265625 L 52.984375 -70.265625 L 50.59375 -65.21875 L 35 -65.21875 L 25.296875 -13.359375 C 25.015625 -12.140625 24.875 -11.015625 24.875 -9.984375 C 24.875 -7.453125 25.859375 -6.1875 27.828125 -6.1875 C 29.234375 -6.1875 30.800781 -7.3125 32.53125 -9.5625 C 34.269531 -11.8125 36.3125 -15.648438 38.65625 -21.078125 L 41.046875 -21.078125 C 38.796875 -12.742188 35.984375 -6.84375 32.609375 -3.375 C 29.234375 0.09375 25.203125 1.828125 20.515625 1.828125 Z M 20.515625 1.828125 "/></g></g></g><g fill="#0b464e" fill-opacity="1"><g transform="translate(786.329917, 523.067314)"><g><path d="M 21.5 1.828125 C 16.8125 1.828125 13.203125 0.492188 10.671875 -2.171875 C 8.148438 -4.847656 6.890625 -8.898438 6.890625 -14.328125 C 6.890625 -17.328125 7.21875 -20.46875 7.875 -23.75 L 12.234375 -45.953125 C 12.796875 -49.046875 13.078125 -51.578125 13.078125 -53.546875 C 13.078125 -55.796875 12.769531 -57.671875 12.15625 -59.171875 C 11.550781 -60.671875 10.59375 -61.984375 9.28125 -63.109375 L 9.421875 -63.8125 L 35.421875 -72.09375 L 36.125 -72.09375 L 25.859375 -19.8125 C 25.578125 -18.3125 25.4375 -17 25.4375 -15.875 C 25.4375 -11.851562 27.125 -9.84375 30.5 -9.84375 C 32.84375 -9.84375 35.460938 -11.503906 38.359375 -14.828125 C 41.265625 -18.148438 44.097656 -22.671875 46.859375 -28.390625 C 49.628906 -34.109375 52 -40.335938 53.96875 -47.078125 L 58.46875 -70.265625 L 77.15625 -70.265625 L 66.0625 -13.359375 C 65.6875 -11.109375 65.5 -9.75 65.5 -9.28125 C 65.5 -7.21875 66.296875 -6.1875 67.890625 -6.1875 C 70.785156 -6.1875 73.96875 -11.148438 77.4375 -21.078125 L 79.828125 -21.078125 C 77.671875 -12.554688 75.070312 -6.609375 72.03125 -3.234375 C 68.988281 0.140625 65.3125 1.828125 61 1.828125 C 57.15625 1.828125 54.0625 0.632812 51.71875 -1.75 C 49.375 -4.144531 48.203125 -7.78125 48.203125 -12.65625 C 48.203125 -15.175781 48.4375 -17.5625 48.90625 -19.8125 L 50.453125 -27.6875 L 49.75 -27.6875 C 42.351562 -8.007812 32.9375 1.828125 21.5 1.828125 Z M 21.5 1.828125 "/></g></g></g><g fill="#0b464e" fill-opacity="1"><g transform="translate(867.006057, 523.067314)"><g><path d="M 13.78125 -45.390625 C 14.425781 -48.578125 14.75 -51.34375 14.75 -53.6875 C 14.75 -55.9375 14.421875 -57.785156 13.765625 -59.234375 C 13.117188 -60.691406 12.1875 -61.984375 10.96875 -63.109375 L 11.109375 -63.8125 L 36.96875 -72.09375 L 37.671875 -72.09375 L 32.75 -46.234375 L 33.453125 -46.234375 C 36.453125 -54.671875 40.457031 -61.085938 45.46875 -65.484375 C 50.476562 -69.890625 56.359375 -72.09375 63.109375 -72.09375 L 65.21875 -72.09375 L 61.84375 -54.109375 L 55.09375 -54.109375 C 48.71875 -54.109375 43.421875 -52.140625 39.203125 -48.203125 C 34.992188 -44.265625 31.71875 -37.941406 29.375 -29.234375 L 23.75 0 L 5.0625 0 Z M 13.78125 -45.390625 "/></g></g></g><g fill="#0b464e" fill-opacity="1"><g transform="translate(925.053499, 523.067314)"><g><path d="M 41.890625 -8.015625 C 45.441406 -8.015625 48.71875 -8.925781 51.71875 -10.75 C 54.71875 -12.582031 57.671875 -15.601562 60.578125 -19.8125 L 62.546875 -19.8125 C 60.953125 -14.101562 57.785156 -9.066406 53.046875 -4.703125 C 48.316406 -0.347656 42.207031 1.828125 34.71875 1.828125 C 28.90625 1.828125 23.796875 0.5625 19.390625 -1.96875 C 14.992188 -4.5 11.550781 -8.054688 9.0625 -12.640625 C 6.582031 -17.234375 5.34375 -22.625 5.34375 -28.8125 C 5.34375 -36.6875 7.070312 -43.925781 10.53125 -50.53125 C 14 -57.132812 18.78125 -62.378906 24.875 -66.265625 C 30.96875 -70.148438 37.804688 -72.09375 45.390625 -72.09375 C 52.796875 -72.09375 58.28125 -70.710938 61.84375 -67.953125 C 65.40625 -65.191406 67.1875 -61.703125 67.1875 -57.484375 C 67.1875 -53.078125 65.453125 -49.164062 61.984375 -45.75 C 58.515625 -42.332031 53.3125 -39.734375 46.375 -37.953125 C 40.476562 -36.546875 33.21875 -35.703125 24.59375 -35.421875 L 24.59375 -34.859375 C 24.59375 -27.078125 26 -20.65625 28.8125 -15.59375 C 31.625 -10.539062 35.984375 -8.015625 41.890625 -8.015625 Z M 42.71875 -68.453125 C 39.539062 -68.453125 36.640625 -67.09375 34.015625 -64.375 C 31.390625 -61.65625 29.28125 -58.046875 27.6875 -53.546875 C 26.09375 -49.046875 25.109375 -44.128906 24.734375 -38.796875 C 31.109375 -39.078125 36.125 -40.015625 39.78125 -41.609375 C 43.144531 -43.097656 45.671875 -45.390625 47.359375 -48.484375 C 49.046875 -51.578125 49.890625 -55.046875 49.890625 -58.890625 C 49.890625 -65.265625 47.5 -68.453125 42.71875 -68.453125 Z M 42.71875 -68.453125 "/></g></g></g><g fill="#0b464e" fill-opacity="1"><g transform="translate(991.534001, 523.067314)"><g><path d="M 10.265625 1.40625 C 7.546875 1.40625 5.316406 0.539062 3.578125 -1.1875 C 1.847656 -2.925781 0.984375 -5.0625 0.984375 -7.59375 C 0.984375 -10.78125 2.082031 -13.472656 4.28125 -15.671875 C 6.488281 -17.867188 9.140625 -18.96875 12.234375 -18.96875 C 14.941406 -18.96875 17.160156 -18.101562 18.890625 -16.375 C 20.628906 -14.644531 21.5 -12.46875 21.5 -9.84375 C 21.5 -6.75 20.394531 -4.097656 18.1875 -1.890625 C 15.988281 0.304688 13.347656 1.40625 10.265625 1.40625 Z M 10.265625 1.40625 "/></g></g></g><g clip-path="url(#c15cb5849e)"><path fill="#0b464e" d="M 977.273438 355.46875 L 974.632812 355.46875 C 974.632812 350.839844 976.378906 340.332031 990.957031 333.652344 L 846.257812 333.652344 L 846.257812 331.011719 L 990.957031 331.011719 C 976.378906 324.332031 974.632812 313.824219 974.632812 309.195312 L 977.273438 309.195312 C 977.273438 313.886719 979.363281 325.40625 998.71875 331.066406 L 998.71875 333.601562 C 979.363281 339.257812 977.273438 350.777344 977.273438 355.46875 Z M 977.273438 355.46875 " fill-opacity="1" fill-rule="nonzero"/></g></svg>